<?xml version="1.0" encoding="UTF-8" standalone="no"?><svg xmlns="http://www.w3.org/2000/svg" xmlns:xlink="http://www.w3.org/1999/xlink" contentScriptType="application/ecmascript" contentStyleType="text/css" height="564px" preserveAspectRatio="none" style="width:551px;height:564px;" version="1.1" viewBox="0 0 551 564" width="551px" zoomAndPan="magnify"><defs><filter height="300%" id="fl67ubqvnxu2q" width="300%" x="-1" y="-1"><feGaussianBlur result="blurOut" stdDeviation="2.0"/><feColorMatrix in="blurOut" result="blurOut2" type="matrix" values="0 0 0 0 0 0 0 0 0 0 0 0 0 0 0 0 0 0 .4 0"/><feOffset dx="4.0" dy="4.0" in="blurOut2" result="blurOut3"/><feBlend in="SourceGraphic" in2="blurOut3" mode="normal"/></filter></defs><g><!--entity User--><ellipse cx="453.5" cy="18" fill="#F8F8F8" filter="url(#fl67ubqvnxu2q)" rx="8" ry="8" style="stroke: #383838; stroke-width: 2.0;"/><path d="M453.5,26 L453.5,53 M440.5,34 L466.5,34 M453.5,53 L440.5,68 M453.5,53 L466.5,68 " fill="#F8F8F8" filter="url(#fl67ubqvnxu2q)" style="stroke: #383838; stroke-width: 2.0;"/><text fill="#000000" font-family="sans-serif" font-size="14" lengthAdjust="spacingAndGlyphs" textLength="31" x="438" y="88.5352">User</text><!--entity Orchestrator--><rect fill="#F8F8F8" filter="url(#fl67ubqvnxu2q)" height="62.9766" style="stroke: #383838; stroke-width: 1.5;" width="127" x="135" y="183"/><rect fill="#F8F8F8" height="10" style="stroke: #383838; stroke-width: 1.5;" width="15" x="242" y="188"/><rect fill="#F8F8F8" height="2" style="stroke: #383838; stroke-width: 1.5;" width="4" x="240" y="190"/><rect fill="#F8F8F8" height="2" style="stroke: #383838; stroke-width: 1.5;" width="4" x="240" y="194"/><text fill="#000000" font-family="sans-serif" font-size="14" font-style="italic" lengthAdjust="spacingAndGlyphs" textLength="41" x="173" y="216.5352">«RPA»</text><text fill="#000000" font-family="sans-serif" font-size="14" lengthAdjust="spacingAndGlyphs" textLength="87" x="150" y="233.0234">Orchestrator</text><!--entity ServiceN--><rect fill="#F8F8F8" filter="url(#fl67ubqvnxu2q)" height="62.9766" style="stroke: #383838; stroke-width: 1.5;" width="111" x="6" y="493"/><rect fill="#F8F8F8" height="10" style="stroke: #383838; stroke-width: 1.5;" width="15" x="97" y="498"/><rect fill="#F8F8F8" height="2" style="stroke: #383838; stroke-width: 1.5;" width="4" x="95" y="500"/><rect fill="#F8F8F8" height="2" style="stroke: #383838; stroke-width: 1.5;" width="4" x="95" y="504"/><text fill="#000000" font-family="sans-serif" font-size="14" font-style="italic" lengthAdjust="spacingAndGlyphs" textLength="71" x="21" y="526.5352">«external»</text><text fill="#000000" font-family="sans-serif" font-size="14" lengthAdjust="spacingAndGlyphs" textLength="58" x="27.5" y="543.0234">ServiceN</text><!--entity Service1--><rect fill="#F8F8F8" filter="url(#fl67ubqvnxu2q)" height="62.9766" style="stroke: #383838; stroke-width: 1.5;" width="107" x="152" y="493"/><rect fill="#F8F8F8" height="10" style="stroke: #383838; stroke-width: 1.5;" width="15" x="239" y="498"/><rect fill="#F8F8F8" height="2" style="stroke: #383838; stroke-width: 1.5;" width="4" x="237" y="500"/><rect fill="#F8F8F8" height="2" style="stroke: #383838; stroke-width: 1.5;" width="4" x="237" y="504"/><text fill="#000000" font-family="sans-serif" font-size="14" font-style="italic" lengthAdjust="spacingAndGlyphs" textLength="67" x="167" y="526.5352">«internal»</text><text fill="#000000" font-family="sans-serif" font-size="14" lengthAdjust="spacingAndGlyphs" textLength="57" x="172" y="543.0234">Service1</text><!--entity Studio--><rect fill="#F8F8F8" filter="url(#fl67ubqvnxu2q)" height="62.9766" style="stroke: #383838; stroke-width: 1.5;" width="84" x="355.5" y="183"/><rect fill="#F8F8F8" height="10" style="stroke: #383838; stroke-width: 1.5;" width="15" x="419.5" y="188"/><rect fill="#F8F8F8" height="2" style="stroke: #383838; stroke-width: 1.5;" width="4" x="417.5" y="190"/><rect fill="#F8F8F8" height="2" style="stroke: #383838; stroke-width: 1.5;" width="4" x="417.5" y="194"/><text fill="#000000" font-family="sans-serif" font-size="14" font-style="italic" lengthAdjust="spacingAndGlyphs" textLength="41" x="372" y="216.5352">«RPA»</text><text fill="#000000" font-family="sans-serif" font-size="14" lengthAdjust="spacingAndGlyphs" textLength="44" x="370.5" y="233.0234">Studio</text><!--entity Robot--><rect fill="#F8F8F8" filter="url(#fl67ubqvnxu2q)" height="62.9766" style="stroke: #383838; stroke-width: 1.5;" width="81" x="236" y="338"/><rect fill="#F8F8F8" height="10" style="stroke: #383838; stroke-width: 1.5;" width="15" x="297" y="343"/><rect fill="#F8F8F8" height="2" style="stroke: #383838; stroke-width: 1.5;" width="4" x="295" y="345"/><rect fill="#F8F8F8" height="2" style="stroke: #383838; stroke-width: 1.5;" width="4" x="295" y="349"/><text fill="#000000" font-family="sans-serif" font-size="14" font-style="italic" lengthAdjust="spacingAndGlyphs" textLength="41" x="251" y="371.5352">«RPA»</text><text fill="#000000" font-family="sans-serif" font-size="14" lengthAdjust="spacingAndGlyphs" textLength="41" x="251" y="388.0234">Robot</text><!--entity Recorder--><rect fill="#F8F8F8" filter="url(#fl67ubqvnxu2q)" height="62.9766" style="stroke: #383838; stroke-width: 1.5;" width="102" x="396.5" y="338"/><rect fill="#F8F8F8" height="10" style="stroke: #383838; stroke-width: 1.5;" width="15" x="478.5" y="343"/><rect fill="#F8F8F8" height="2" style="stroke: #383838; stroke-width: 1.5;" width="4" x="476.5" y="345"/><rect fill="#F8F8F8" height="2" style="stroke: #383838; stroke-width: 1.5;" width="4" x="476.5" y="349"/><text fill="#000000" font-family="sans-serif" font-size="14" font-style="italic" lengthAdjust="spacingAndGlyphs" textLength="41" x="422" y="371.5352">«RPA»</text><text fill="#000000" font-family="sans-serif" font-size="14" lengthAdjust="spacingAndGlyphs" textLength="62" x="411.5" y="388.0234">Recorder</text><!--entity Software--><rect fill="#F8F8F8" filter="url(#fl67ubqvnxu2q)" height="62.9766" style="stroke: #383838; stroke-width: 1.5;" width="107" x="294" y="493"/><rect fill="#F8F8F8" height="10" style="stroke: #383838; stroke-width: 1.5;" width="15" x="381" y="498"/><rect fill="#F8F8F8" height="2" style="stroke: #383838; stroke-width: 1.5;" width="4" x="379" y="500"/><rect fill="#F8F8F8" height="2" style="stroke: #383838; stroke-width: 1.5;" width="4" x="379" y="504"/><text fill="#000000" font-family="sans-serif" font-size="14" font-style="italic" lengthAdjust="spacingAndGlyphs" textLength="67" x="309" y="526.5352">«internal»</text><text fill="#000000" font-family="sans-serif" font-size="14" lengthAdjust="spacingAndGlyphs" textLength="60" x="312.5" y="543.0234">Software</text><!--entity DSS--><rect fill="#F8F8F8" filter="url(#fl67ubqvnxu2q)" height="62.9766" style="stroke: #383838; stroke-width: 1.5;" width="81" x="436" y="493"/><rect fill="#F8F8F8" height="10" style="stroke: #383838; stroke-width: 1.5;" width="15" x="497" y="498"/><rect fill="#F8F8F8" height="2" style="stroke: #383838; stroke-width: 1.5;" width="4" x="495" y="500"/><rect fill="#F8F8F8" height="2" style="stroke: #383838; stroke-width: 1.5;" width="4" x="495" y="504"/><text fill="#000000" font-family="sans-serif" font-size="14" font-style="italic" lengthAdjust="spacingAndGlyphs" textLength="41" x="451" y="526.5352">«RPA»</text><text fill="#000000" font-family="sans-serif" font-size="14" lengthAdjust="spacingAndGlyphs" textLength="26" x="458.5" y="543.0234">DSS</text><!--link Studio to Robot--><path d="M361.2899,246.1695 C351.7404,255.3338 341.7957,265.6654 333.5,276 C319.2378,293.7676 305.8371,315.3907 295.6171,333.3657 " fill="none" id="Studio-Robot" style="stroke: #383838; stroke-width: 1.0; stroke-dasharray: 7.0,7.0;"/><polygon fill="#383838" points="293.0887,337.8524,300.9919,331.9754,295.5434,333.4964,294.0224,328.0479,293.0887,337.8524" style="stroke: #383838; stroke-width: 1.0;"/><text fill="#000000" font-family="sans-serif" font-size="13" lengthAdjust="spacingAndGlyphs" textLength="60" x="334.5" y="297.0684">configure</text><!--link Studio to Recorder--><path d="M398.7549,246.4168 C400.2565,264.8474 403.5065,288.2224 410.5,308 C413.5493,316.6235 417.8921,325.3582 422.5358,333.4312 " fill="none" id="Studio-Recorder" style="stroke: #383838; stroke-width: 1.0; stroke-dasharray: 7.0,7.0;"/><polygon fill="#383838" points="425.1403,337.8433,424.0098,328.0595,422.5986,333.5375,417.1206,332.1263,425.1403,337.8433" style="stroke: #383838; stroke-width: 1.0;"/><text fill="#000000" font-family="sans-serif" font-size="13" lengthAdjust="spacingAndGlyphs" textLength="71" x="411.5" y="289.5684">record user</text><text fill="#000000" font-family="sans-serif" font-size="13" lengthAdjust="spacingAndGlyphs" textLength="46" x="424" y="304.8789">actions</text><!--link Robot to Software--><path d="M291.0392,401.2406 C302.5736,426.4212 318.7073,461.6427 330.776,487.9899 " fill="none" id="Robot-Software" style="stroke: #383838; stroke-width: 1.0; stroke-dasharray: 7.0,7.0;"/><polygon fill="#383838" points="332.9802,492.8019,332.8684,482.9537,330.8978,488.2562,325.5953,486.2856,332.9802,492.8019" style="stroke: #383838; stroke-width: 1.0;"/><text fill="#000000" font-family="sans-serif" font-size="13" lengthAdjust="spacingAndGlyphs" textLength="59" x="319.5" y="452.0684">automate</text><!--link Robot to Service1--><path d="M254.3763,401.2355 C248.4265,410.5679 242.3138,420.9695 237.5,431 C228.8148,449.0975 221.3843,470.1828 215.8758,487.7447 " fill="none" id="Robot-Service1" style="stroke: #383838; stroke-width: 1.0; stroke-dasharray: 7.0,7.0;"/><polygon fill="#383838" points="214.3736,492.5992,220.8555,485.184,215.8518,487.8227,213.2131,482.819,214.3736,492.5992" style="stroke: #383838; stroke-width: 1.0;"/><text fill="#000000" font-family="sans-serif" font-size="13" lengthAdjust="spacingAndGlyphs" textLength="59" x="238.5" y="452.0684">automate</text><!--link Robot to ServiceN--><path d="M235.8355,386.5794 C211.7301,397.6001 181.1708,413.1809 156.5,431 C133.109,447.8947 109.967,470.5128 92.3805,489.271 " fill="none" id="Robot-ServiceN" style="stroke: #383838; stroke-width: 1.0; stroke-dasharray: 7.0,7.0;"/><polygon fill="#383838" points="88.9388,492.9683,97.9988,489.1061,92.3456,489.3085,92.1432,483.6553,88.9388,492.9683" style="stroke: #383838; stroke-width: 1.0;"/><text fill="#000000" font-family="sans-serif" font-size="13" lengthAdjust="spacingAndGlyphs" textLength="59" x="157.5" y="452.0684">automate</text><!--link Robot to DSS--><path d="M317.097,388.2333 C338.9515,399.2221 365.798,414.2264 387.5,431 C409.2602,447.8186 430.6099,469.9985 446.9422,488.5346 " fill="none" id="Robot-DSS" style="stroke: #383838; stroke-width: 1.0; stroke-dasharray: 7.0,7.0;"/><polygon fill="#383838" points="450.5597,492.6739,447.6489,483.265,447.2693,488.9091,441.6252,488.5296,450.5597,492.6739" style="stroke: #383838; stroke-width: 1.0;"/><text fill="#000000" font-family="sans-serif" font-size="13" lengthAdjust="spacingAndGlyphs" textLength="69" x="423.5" y="444.5684">consult for</text><text fill="#000000" font-family="sans-serif" font-size="13" lengthAdjust="spacingAndGlyphs" textLength="60" x="428" y="459.8789">decisions</text><!--link Recorder to User--><path d="M473.0783,337.731 C478.9776,328.6462 484.4215,318.3793 487.5,308 C511.1328,228.3197 505.7945,202.0726 487.5,121 C484.2664,106.6701 477.8069,91.8434 471.3785,79.4323 " fill="none" id="Recorder-User" style="stroke: #383838; stroke-width: 1.0; stroke-dasharray: 7.0,7.0;"/><polygon fill="#383838" points="469.0176,74.9744,469.695,84.7999,471.3577,79.393,476.7647,81.0557,469.0176,74.9744" style="stroke: #383838; stroke-width: 1.0;"/><text fill="#000000" font-family="sans-serif" font-size="13" lengthAdjust="spacingAndGlyphs" textLength="37" x="509" y="212.0684">watch</text><text fill="#000000" font-family="sans-serif" font-size="13" lengthAdjust="spacingAndGlyphs" textLength="46" x="504.5" y="227.3789">actions</text><!--link Orchestrator to Robot--><path d="M190.2136,246.4101 C187.0339,265.2723 186.1136,289.0879 195.5,308 C203.3251,323.7663 217.3384,336.5793 231.534,346.3483 " fill="none" id="Orchestrator-Robot" style="stroke: #383838; stroke-width: 1.0; stroke-dasharray: 7.0,7.0;"/><polygon fill="#383838" points="235.9387,349.2822,230.6657,340.9638,231.7773,346.5104,226.2308,347.622,235.9387,349.2822" style="stroke: #383838; stroke-width: 1.0;"/><text fill="#000000" font-family="sans-serif" font-size="13" lengthAdjust="spacingAndGlyphs" textLength="71" x="196.5" y="297.0684">orchestrate</text><!--link User to Studio--><path d="M437.9853,81.0649 C432.3196,93.3435 426.1639,107.6474 421.5,121 C415.0896,139.353 409.5609,160.2712 405.431,177.6616 " fill="none" id="User-Studio" style="stroke: #383838; stroke-width: 1.0; stroke-dasharray: 7.0,7.0;"/><polygon fill="#383838" points="404.1948,182.9387,410.1421,175.0883,405.3352,178.0705,402.353,173.2636,404.1948,182.9387" style="stroke: #383838; stroke-width: 1.0;"/><text fill="#000000" font-family="sans-serif" font-size="13" lengthAdjust="spacingAndGlyphs" textLength="60" x="422.5" y="134.5684">configure</text><text fill="#000000" font-family="sans-serif" font-size="13" lengthAdjust="spacingAndGlyphs" textLength="41" x="432" y="149.8789">robots</text><!--
@startuml
skinparam componentStyle uml2
skinparam monochrome true

actor User

component Orchestrator <<RPA>>
component ServiceN <<external>>
component Service1 <<internal>>
component Studio <<RPA>>
component Robot <<RPA>>
component Recorder <<RPA>>
component Software <<internal>>
component DSS <<RPA>>

Studio ..> Robot : configure
Studio ..> Recorder : record user\nactions
Robot ..> Software : automate
Robot ..> Service1 : automate
Robot ..> ServiceN : automate
Robot ..> DSS : consult for\ndecisions
Recorder ..> User : watch\nactions
Orchestrator ..> Robot : orchestrate
User ..> Studio : configure\nrobots
@enduml

PlantUML version 1.2017.13(Wed May 10 19:52:33 EEST 2017)
(GPL source distribution)
Java Runtime: Java(TM) SE Runtime Environment
JVM: Java HotSpot(TM) 64-Bit Server VM
Java Version: 1.8.0_121-b13
Operating System: Mac OS X
OS Version: 10.12.2
Default Encoding: UTF-8
Language: en
Country: US
--></g></svg>