<?xml version="1.0" encoding="UTF-8" standalone="no"?><svg xmlns="http://www.w3.org/2000/svg" xmlns:xlink="http://www.w3.org/1999/xlink" contentScriptType="application/ecmascript" contentStyleType="text/css" height="1138px" preserveAspectRatio="none" style="width:765px;height:1138px;" version="1.1" viewBox="0 0 765 1138" width="765px" zoomAndPan="magnify"><defs><filter height="300%" id="fgh66379sb6w4" width="300%" x="-1" y="-1"><feGaussianBlur result="blurOut" stdDeviation="2.0"/><feColorMatrix in="blurOut" result="blurOut2" type="matrix" values="0 0 0 0 0 0 0 0 0 0 0 0 0 0 0 0 0 0 .4 0"/><feOffset dx="4.0" dy="4.0" in="blurOut2" result="blurOut3"/><feBlend in="SourceGraphic" in2="blurOut3" mode="normal"/></filter></defs><g><text fill="#000000" font-family="sans-serif" font-size="18" lengthAdjust="spacingAndGlyphs" textLength="96" x="105" y="29.6992">BTManager</text><line style="stroke: #000000; stroke-width: 2.0;" x1="10" x2="10" y1="12.2969" y2="1131.4316"/><rect fill="#F8F8F8" filter="url(#fgh66379sb6w4)" height="34.1328" rx="12.5" ry="12.5" style="stroke: #383838; stroke-width: 1.5;" width="137" x="78" y="399.8818"/><text fill="#000000" font-family="sans-serif" font-size="12" lengthAdjust="spacingAndGlyphs" textLength="117" x="88" y="421.4834">lookup flight options</text><polygon fill="#F8F8F8" filter="url(#fgh66379sb6w4)" points="73.5,457.3818,219.5,457.3818,229.5,481.5146,219.5,505.6475,73.5,505.6475" style="stroke: #383838; stroke-width: 1.5;"/><text fill="#000000" font-family="sans-serif" font-size="12" lengthAdjust="spacingAndGlyphs" textLength="126" x="83.5" y="478.9834">propose flight options</text><text fill="#000000" font-family="sans-serif" font-size="12" lengthAdjust="spacingAndGlyphs" textLength="71" x="83.5" y="493.1162">to requestor</text><rect fill="#F8F8F8" filter="url(#fgh66379sb6w4)" height="34.1328" rx="12.5" ry="12.5" style="stroke: #383838; stroke-width: 1.5;" width="152" x="70.5" y="822.0996"/><text fill="#000000" font-family="sans-serif" font-size="12" lengthAdjust="spacingAndGlyphs" textLength="132" x="80.5" y="843.7012">make flight reservation</text><polygon fill="#F8F8F8" filter="url(#fgh66379sb6w4)" points="105.5,891.166,187.5,891.166,199.5,903.166,187.5,915.166,105.5,915.166,93.5,903.166,105.5,891.166" style="stroke: #383838; stroke-width: 1.5;"/><text fill="#000000" font-family="sans-serif" font-size="11" lengthAdjust="spacingAndGlyphs" textLength="82" x="105.5" y="907.3232">selected option</text><text fill="#000000" font-family="sans-serif" font-size="11" lengthAdjust="spacingAndGlyphs" textLength="46" x="47.5" y="900.8457">available</text><text fill="#000000" font-family="sans-serif" font-size="11" lengthAdjust="spacingAndGlyphs" textLength="60" x="199.5" y="900.8457">unavailable</text><polygon fill="#F8F8F8" filter="url(#fgh66379sb6w4)" points="30,925.166,135,925.166,145,949.2988,135,973.4316,30,973.4316" style="stroke: #383838; stroke-width: 1.5;"/><text fill="#000000" font-family="sans-serif" font-size="12" lengthAdjust="spacingAndGlyphs" textLength="85" x="40" y="946.7676">send eticket to</text><text fill="#000000" font-family="sans-serif" font-size="12" lengthAdjust="spacingAndGlyphs" textLength="56" x="40" y="960.9004">requestor</text><polygon fill="#F8F8F8" filter="url(#fgh66379sb6w4)" points="155,925.166,266,925.166,276,949.2988,266,973.4316,155,973.4316" style="stroke: #383838; stroke-width: 1.5;"/><text fill="#000000" font-family="sans-serif" font-size="12" lengthAdjust="spacingAndGlyphs" textLength="91" x="165" y="946.7676">notify requestor</text><text fill="#000000" font-family="sans-serif" font-size="12" lengthAdjust="spacingAndGlyphs" textLength="73" x="165" y="960.9004">about failure</text><polygon fill="#F8F8F8" filter="url(#fgh66379sb6w4)" points="146.5,979.4316,158.5,991.4316,146.5,1003.4316,134.5,991.4316,146.5,979.4316" style="stroke: #383838; stroke-width: 1.5;"/><text fill="#000000" font-family="sans-serif" font-size="18" lengthAdjust="spacingAndGlyphs" textLength="108" x="476.25" y="29.6992">BTRequestor</text><line style="stroke: #000000; stroke-width: 2.0;" x1="296" x2="296" y1="12.2969" y2="1131.4316"/><ellipse cx="577" cy="43.4961" fill="#000000" filter="url(#fgh66379sb6w4)" rx="10" ry="10" style="stroke: none; stroke-width: 1.0;"/><polygon fill="#F8F8F8" filter="url(#fgh66379sb6w4)" points="504.5,73.4961,659.5,73.4961,649.5,90.5625,659.5,107.6289,504.5,107.6289" style="stroke: #383838; stroke-width: 1.5;"/><text fill="#000000" font-family="sans-serif" font-size="12" lengthAdjust="spacingAndGlyphs" textLength="125" x="514.5" y="95.0977">business trip planned</text><rect fill="#F8F8F8" filter="url(#fgh66379sb6w4)" height="48.2656" rx="12.5" ry="12.5" style="stroke: #383838; stroke-width: 1.5;" width="170" x="492" y="127.6289"/><text fill="#000000" font-family="sans-serif" font-size="12" lengthAdjust="spacingAndGlyphs" textLength="150" x="502" y="149.2305">determine trip timeframe,</text><text fill="#000000" font-family="sans-serif" font-size="12" lengthAdjust="spacingAndGlyphs" textLength="142" x="502" y="163.3633">urgency, and destination</text><polygon fill="#ECECEC" filter="url(#fgh66379sb6w4)" points="316,236.6504,316,277.2715,484,277.2715,484,246.6504,474,236.6504,316,236.6504" style="stroke: #383838; stroke-width: 1.0;"/><polygon fill="#ECECEC" points="316,236.6504,316,277.2715,484,277.2715,484,260.9609,504,256.9609,484,252.9609,484,246.6504,474,236.6504,316,236.6504" style="stroke: #383838; stroke-width: 1.0;"/><line style="stroke: #383838; stroke-width: 1.0;" x1="474" x2="474" y1="236.6504" y2="246.6504"/><line style="stroke: #383838; stroke-width: 1.0;" x1="484" x2="474" y1="246.6504" y2="246.6504"/><text fill="#000000" font-family="sans-serif" font-size="13" lengthAdjust="spacingAndGlyphs" textLength="147" x="322" y="254.2188">airline, legs, seat class,</text><text fill="#000000" font-family="sans-serif" font-size="13" lengthAdjust="spacingAndGlyphs" textLength="144" x="322" y="269.5293">price range, date range</text><rect fill="#F8F8F8" filter="url(#fgh66379sb6w4)" height="34.1328" rx="12.5" ry="12.5" style="stroke: #383838; stroke-width: 1.5;" width="146" x="504" y="239.8945"/><text fill="#000000" font-family="sans-serif" font-size="12" lengthAdjust="spacingAndGlyphs" textLength="126" x="514" y="261.4961">set travel preferences</text><polygon fill="#F8F8F8" filter="url(#fgh66379sb6w4)" points="506,345.749,648,345.749,658,362.8154,648,379.8818,506,379.8818" style="stroke: #383838; stroke-width: 1.5;"/><text fill="#000000" font-family="sans-serif" font-size="12" lengthAdjust="spacingAndGlyphs" textLength="122" x="516" y="367.3506">request flight options</text><polygon fill="#F8F8F8" filter="url(#fgh66379sb6w4)" points="516.5,525.6475,647.5,525.6475,637.5,549.7803,647.5,573.9131,516.5,573.9131" style="stroke: #383838; stroke-width: 1.5;"/><text fill="#000000" font-family="sans-serif" font-size="12" lengthAdjust="spacingAndGlyphs" textLength="101" x="526.5" y="547.249">receive proposed</text><text fill="#000000" font-family="sans-serif" font-size="12" lengthAdjust="spacingAndGlyphs" textLength="42" x="526.5" y="561.3818">options</text><polygon fill="#F8F8F8" filter="url(#fgh66379sb6w4)" points="541,297.2715,613,297.2715,625,309.2715,613,321.2715,541,321.2715,529,309.2715,541,297.2715" style="stroke: #383838; stroke-width: 1.5;"/><text fill="#000000" font-family="sans-serif" font-size="11" lengthAdjust="spacingAndGlyphs" textLength="49" x="581" y="331.9063">unknown</text><text fill="#000000" font-family="sans-serif" font-size="11" lengthAdjust="spacingAndGlyphs" textLength="72" x="541" y="313.4287">flight options</text><text fill="#000000" font-family="sans-serif" font-size="11" lengthAdjust="spacingAndGlyphs" textLength="35" x="625" y="306.9512">known</text><polygon fill="#F8F8F8" filter="url(#fgh66379sb6w4)" points="577,593.9131,589,605.9131,577,617.9131,565,605.9131,577,593.9131" style="stroke: #383838; stroke-width: 1.5;"/><rect fill="#F8F8F8" filter="url(#fgh66379sb6w4)" height="34.1328" rx="12.5" ry="12.5" style="stroke: #383838; stroke-width: 1.5;" width="111" x="521.5" y="651.2236"/><text fill="#000000" font-family="sans-serif" font-size="12" lengthAdjust="spacingAndGlyphs" textLength="91" x="531.5" y="672.8252">select an option</text><polygon fill="#F8F8F8" filter="url(#fgh66379sb6w4)" points="516.5,753.834,637.5,753.834,647.5,777.9668,637.5,802.0996,516.5,802.0996" style="stroke: #383838; stroke-width: 1.5;"/><text fill="#000000" font-family="sans-serif" font-size="12" lengthAdjust="spacingAndGlyphs" textLength="101" x="526.5" y="775.4355">notify manager of</text><text fill="#000000" font-family="sans-serif" font-size="12" lengthAdjust="spacingAndGlyphs" textLength="88" x="526.5" y="789.5684">selected option</text><polygon fill="#F8F8F8" filter="url(#fgh66379sb6w4)" points="544,705.3564,610,705.3564,622,717.3564,610,729.3564,544,729.3564,532,717.3564,544,705.3564" style="stroke: #383838; stroke-width: 1.5;"/><text fill="#000000" font-family="sans-serif" font-size="11" lengthAdjust="spacingAndGlyphs" textLength="44" x="581" y="739.9912">selected</text><text fill="#000000" font-family="sans-serif" font-size="11" lengthAdjust="spacingAndGlyphs" textLength="66" x="544" y="721.5137">flight option</text><text fill="#000000" font-family="sans-serif" font-size="11" lengthAdjust="spacingAndGlyphs" textLength="58" x="622" y="715.0361">rejected all</text><polygon fill="#F8F8F8" filter="url(#fgh66379sb6w4)" points="577,1023.4316,589,1035.4316,577,1047.4316,565,1035.4316,577,1023.4316" style="stroke: #383838; stroke-width: 1.5;"/><polygon fill="#F8F8F8" filter="url(#fgh66379sb6w4)" points="577,195.8945,589,207.8945,577,219.8945,565,207.8945,577,195.8945" style="stroke: #383838; stroke-width: 1.5;"/><polygon fill="#F8F8F8" filter="url(#fgh66379sb6w4)" points="528,1067.4316,626,1067.4316,638,1079.4316,626,1091.4316,528,1091.4316,516,1079.4316,528,1067.4316" style="stroke: #383838; stroke-width: 1.5;"/><text fill="#000000" font-family="sans-serif" font-size="11" lengthAdjust="spacingAndGlyphs" textLength="98" x="528" y="1083.5889">reservation made?</text><text fill="#000000" font-family="sans-serif" font-size="11" lengthAdjust="spacingAndGlyphs" textLength="14" x="638" y="1077.1113">no</text><ellipse cx="577" cy="1121.4316" fill="none" filter="url(#fgh66379sb6w4)" rx="10" ry="10" style="stroke: #000000; stroke-width: 1.0;"/><ellipse cx="577.5" cy="1121.9316" fill="#000000" filter="url(#fgh66379sb6w4)" rx="6" ry="6" style="stroke: none; stroke-width: 1.0;"/><line style="stroke: #000000; stroke-width: 2.0;" x1="764.5" x2="764.5" y1="12.2969" y2="1131.4316"/><line style="stroke: #383838; stroke-width: 1.5;" x1="146.5" x2="146.5" y1="434.0146" y2="457.3818"/><polygon fill="#383838" points="142.5,447.3818,146.5,457.3818,150.5,447.3818,146.5,451.3818" style="stroke: #383838; stroke-width: 1.0;"/><line style="stroke: #383838; stroke-width: 1.5;" x1="93.5" x2="82.5" y1="903.166" y2="903.166"/><line style="stroke: #383838; stroke-width: 1.5;" x1="82.5" x2="82.5" y1="903.166" y2="925.166"/><polygon fill="#383838" points="78.5,915.166,82.5,925.166,86.5,915.166,82.5,919.166" style="stroke: #383838; stroke-width: 1.0;"/><line style="stroke: #383838; stroke-width: 1.5;" x1="199.5" x2="210.5" y1="903.166" y2="903.166"/><line style="stroke: #383838; stroke-width: 1.5;" x1="210.5" x2="210.5" y1="903.166" y2="925.166"/><polygon fill="#383838" points="206.5,915.166,210.5,925.166,214.5,915.166,210.5,919.166" style="stroke: #383838; stroke-width: 1.0;"/><line style="stroke: #383838; stroke-width: 1.5;" x1="82.5" x2="82.5" y1="973.4316" y2="991.4316"/><line style="stroke: #383838; stroke-width: 1.5;" x1="82.5" x2="134.5" y1="991.4316" y2="991.4316"/><polygon fill="#383838" points="124.5,987.4316,134.5,991.4316,124.5,995.4316,128.5,991.4316" style="stroke: #383838; stroke-width: 1.0;"/><line style="stroke: #383838; stroke-width: 1.5;" x1="210.5" x2="210.5" y1="973.4316" y2="991.4316"/><line style="stroke: #383838; stroke-width: 1.5;" x1="210.5" x2="158.5" y1="991.4316" y2="991.4316"/><polygon fill="#383838" points="168.5,987.4316,158.5,991.4316,168.5,995.4316,164.5,991.4316" style="stroke: #383838; stroke-width: 1.0;"/><line style="stroke: #383838; stroke-width: 1.5;" x1="146.5" x2="146.5" y1="856.2324" y2="891.166"/><polygon fill="#383838" points="142.5,881.166,146.5,891.166,150.5,881.166,146.5,885.166" style="stroke: #383838; stroke-width: 1.0;"/><line style="stroke: #383838; stroke-width: 1.5;" x1="577" x2="577" y1="53.4961" y2="73.4961"/><polygon fill="#383838" points="573,63.4961,577,73.4961,581,63.4961,577,67.4961" style="stroke: #383838; stroke-width: 1.0;"/><line style="stroke: #383838; stroke-width: 1.5;" x1="577" x2="577" y1="107.6289" y2="127.6289"/><polygon fill="#383838" points="573,117.6289,577,127.6289,581,117.6289,577,121.6289" style="stroke: #383838; stroke-width: 1.0;"/><line style="stroke: #383838; stroke-width: 1.5;" x1="577" x2="577" y1="321.2715" y2="345.749"/><polygon fill="#383838" points="573,335.749,577,345.749,581,335.749,577,339.749" style="stroke: #383838; stroke-width: 1.0;"/><line style="stroke: #383838; stroke-width: 1.5;" x1="625" x2="660" y1="309.2715" y2="309.2715"/><polygon fill="#383838" points="656,444.0146,660,454.0146,664,444.0146,660,448.0146" style="stroke: #383838; stroke-width: 1.5;"/><line style="stroke: #383838; stroke-width: 1.5;" x1="660" x2="660" y1="309.2715" y2="605.9131"/><line style="stroke: #383838; stroke-width: 1.5;" x1="660" x2="589" y1="605.9131" y2="605.9131"/><polygon fill="#383838" points="599,601.9131,589,605.9131,599,609.9131,595,605.9131" style="stroke: #383838; stroke-width: 1.0;"/><line style="stroke: #383838; stroke-width: 1.5;" x1="577" x2="577" y1="573.9131" y2="593.9131"/><polygon fill="#383838" points="573,583.9131,577,593.9131,581,583.9131,577,587.9131" style="stroke: #383838; stroke-width: 1.0;"/><line style="stroke: #383838; stroke-width: 1.5;" x1="577" x2="577" y1="274.0273" y2="297.2715"/><polygon fill="#383838" points="573,287.2715,577,297.2715,581,287.2715,577,291.2715" style="stroke: #383838; stroke-width: 1.0;"/><line style="stroke: #383838; stroke-width: 1.5;" x1="577" x2="577" y1="617.9131" y2="651.2236"/><polygon fill="#383838" points="573,641.2236,577,651.2236,581,641.2236,577,645.2236" style="stroke: #383838; stroke-width: 1.0;"/><line style="stroke: #383838; stroke-width: 1.5;" x1="577" x2="577" y1="729.3564" y2="753.834"/><polygon fill="#383838" points="573,743.834,577,753.834,581,743.834,577,747.834" style="stroke: #383838; stroke-width: 1.0;"/><line style="stroke: #383838; stroke-width: 1.5;" x1="622" x2="716.5" y1="717.3564" y2="717.3564"/><polygon fill="#383838" points="712.5,861.166,716.5,871.166,720.5,861.166,716.5,865.166" style="stroke: #383838; stroke-width: 1.5;"/><line style="stroke: #383838; stroke-width: 1.5;" x1="716.5" x2="716.5" y1="717.3564" y2="1035.4316"/><line style="stroke: #383838; stroke-width: 1.5;" x1="716.5" x2="589" y1="1035.4316" y2="1035.4316"/><polygon fill="#383838" points="599,1031.4316,589,1035.4316,599,1039.4316,595,1035.4316" style="stroke: #383838; stroke-width: 1.0;"/><line style="stroke: #383838; stroke-width: 1.5;" x1="577" x2="577" y1="685.3564" y2="705.3564"/><polygon fill="#383838" points="573,695.3564,577,705.3564,581,695.3564,577,699.3564" style="stroke: #383838; stroke-width: 1.0;"/><line style="stroke: #383838; stroke-width: 1.5;" x1="577" x2="577" y1="219.8945" y2="239.8945"/><polygon fill="#383838" points="573,229.8945,577,239.8945,581,229.8945,577,233.8945" style="stroke: #383838; stroke-width: 1.0;"/><line style="stroke: #383838; stroke-width: 1.5;" x1="638" x2="740.5" y1="1079.4316" y2="1079.4316"/><polygon fill="#383838" points="736.5,637.9131,740.5,627.9131,744.5,637.9131,740.5,633.9131" style="stroke: #383838; stroke-width: 1.5;"/><line style="stroke: #383838; stroke-width: 1.5;" x1="740.5" x2="740.5" y1="207.8945" y2="1079.4316"/><line style="stroke: #383838; stroke-width: 1.5;" x1="740.5" x2="589" y1="207.8945" y2="207.8945"/><polygon fill="#383838" points="599,203.8945,589,207.8945,599,211.8945,595,207.8945" style="stroke: #383838; stroke-width: 1.0;"/><line style="stroke: #383838; stroke-width: 1.5;" x1="577" x2="577" y1="1047.4316" y2="1067.4316"/><polygon fill="#383838" points="573,1057.4316,577,1067.4316,581,1057.4316,577,1061.4316" style="stroke: #383838; stroke-width: 1.0;"/><line style="stroke: #383838; stroke-width: 1.5;" x1="577" x2="577" y1="175.8945" y2="195.8945"/><polygon fill="#383838" points="573,185.8945,577,195.8945,581,185.8945,577,189.8945" style="stroke: #383838; stroke-width: 1.0;"/><line style="stroke: #383838; stroke-width: 1.5;" x1="577" x2="577" y1="1091.4316" y2="1111.4316"/><polygon fill="#383838" points="573,1101.4316,577,1111.4316,581,1101.4316,577,1105.4316" style="stroke: #383838; stroke-width: 1.0;"/><line style="stroke: #383838; stroke-width: 1.5;" x1="577" x2="577" y1="379.8818" y2="384.8818"/><line style="stroke: #383838; stroke-width: 1.5;" x1="577" x2="146.5" y1="384.8818" y2="384.8818"/><line style="stroke: #383838; stroke-width: 1.5;" x1="146.5" x2="146.5" y1="384.8818" y2="399.8818"/><polygon fill="#383838" points="142.5,389.8818,146.5,399.8818,150.5,389.8818,146.5,393.8818" style="stroke: #383838; stroke-width: 1.0;"/><line style="stroke: #383838; stroke-width: 1.5;" x1="146.5" x2="146.5" y1="505.6475" y2="510.6475"/><line style="stroke: #383838; stroke-width: 1.5;" x1="146.5" x2="577" y1="510.6475" y2="510.6475"/><line style="stroke: #383838; stroke-width: 1.5;" x1="577" x2="577" y1="510.6475" y2="525.6475"/><polygon fill="#383838" points="573,515.6475,577,525.6475,581,515.6475,577,519.6475" style="stroke: #383838; stroke-width: 1.0;"/><line style="stroke: #383838; stroke-width: 1.5;" x1="577" x2="577" y1="802.0996" y2="807.0996"/><line style="stroke: #383838; stroke-width: 1.5;" x1="577" x2="146.5" y1="807.0996" y2="807.0996"/><line style="stroke: #383838; stroke-width: 1.5;" x1="146.5" x2="146.5" y1="807.0996" y2="822.0996"/><polygon fill="#383838" points="142.5,812.0996,146.5,822.0996,150.5,812.0996,146.5,816.0996" style="stroke: #383838; stroke-width: 1.0;"/><line style="stroke: #383838; stroke-width: 1.5;" x1="146.5" x2="146.5" y1="1003.4316" y2="1011.1929"/><line style="stroke: #383838; stroke-width: 1.5;" x1="146.5" x2="577" y1="1011.1929" y2="1011.1929"/><line style="stroke: #383838; stroke-width: 1.5;" x1="577" x2="577" y1="1011.1929" y2="1023.4316"/><polygon fill="#383838" points="573,1013.4316,577,1023.4316,581,1013.4316,577,1017.4316" style="stroke: #383838; stroke-width: 1.0;"/><!--
@startuml
skinparam monochrome true

|BTManager|
|BTRequestor|
start
:business trip planned<
:determine trip timeframe,\nurgency, and destination;
repeat
:set travel preferences;
note left
airline, legs, seat class,
price range, date range
end note
if (flight options) then (unknown)
    :request flight options>
    |BTManager|
    :lookup flight options;
    :propose flight options\nto requestor>
    |BTRequestor|
    :receive proposed\noptions<
else (known)
endif
|BTRequestor|
:select an option;
if (flight option) then (selected)
    :notify manager of\nselected option>
    |BTManager|
    :make flight reservation;
    if (selected option) then (available)
        :send eticket to\nrequestor>
    else (unavailable)
        :notify requestor\nabout failure>
    endif
else (rejected all)
endif
repeat while (reservation made?) is (no)
|BTRequestor|
stop
@enduml

PlantUML version 1.2017.13(Wed May 10 19:52:33 EEST 2017)
(GPL source distribution)
Java Runtime: Java(TM) SE Runtime Environment
JVM: Java HotSpot(TM) 64-Bit Server VM
Java Version: 1.8.0_121-b13
Operating System: Mac OS X
OS Version: 10.12.2
Default Encoding: UTF-8
Language: en
Country: US
--></g></svg>