<?xml version="1.0" encoding="UTF-8" standalone="no"?><svg xmlns="http://www.w3.org/2000/svg" xmlns:xlink="http://www.w3.org/1999/xlink" contentScriptType="application/ecmascript" contentStyleType="text/css" height="263px" preserveAspectRatio="none" style="width:385px;height:263px;" version="1.1" viewBox="0 0 385 263" width="385px" zoomAndPan="magnify"><defs><filter height="300%" id="f1ir6r013ikeg6" width="300%" x="-1" y="-1"><feGaussianBlur result="blurOut" stdDeviation="2.0"/><feColorMatrix in="blurOut" result="blurOut2" type="matrix" values="0 0 0 0 0 0 0 0 0 0 0 0 0 0 0 0 0 0 .4 0"/><feOffset dx="4.0" dy="4.0" in="blurOut2" result="blurOut3"/><feBlend in="SourceGraphic" in2="blurOut3" mode="normal"/></filter></defs><g><!--class TripCategory--><rect fill="#F8F8F8" filter="url(#f1ir6r013ikeg6)" height="86.8652" id="TripCategory" style="stroke: #383838; stroke-width: 1.5;" width="107" x="6" y="8"/><ellipse cx="21" cy="24" fill="#ABABAB" rx="11" ry="11" style="stroke: #383838; stroke-width: 1.0;"/><path d="M25.1143,30 L17.3945,30 L17.3945,17.6069 L25.1143,17.6069 L25.1143,19.7651 L19.8433,19.7651 L19.8433,22.438 L24.6162,22.438 L24.6162,24.5962 L19.8433,24.5962 L19.8433,27.8418 L25.1143,27.8418 Z "/><text fill="#000000" font-family="sans-serif" font-size="12" lengthAdjust="spacingAndGlyphs" textLength="75" x="35" y="28.5352">TripCategory</text><line style="stroke: #383838; stroke-width: 1.5;" x1="7" x2="112" y1="40" y2="40"/><text fill="#000000" font-family="sans-serif" font-size="11" lengthAdjust="spacingAndGlyphs" textLength="67" x="12" y="54.6348">client_needs</text><text fill="#000000" font-family="sans-serif" font-size="11" lengthAdjust="spacingAndGlyphs" textLength="79" x="12" y="67.5898">internal_needs</text><text fill="#000000" font-family="sans-serif" font-size="11" lengthAdjust="spacingAndGlyphs" textLength="55" x="12" y="80.5449">recreation</text><line style="stroke: #383838; stroke-width: 1.5;" x1="7" x2="112" y1="86.8652" y2="86.8652"/><!--class Budget--><rect fill="#F8F8F8" filter="url(#f1ir6r013ikeg6)" height="73.9102" id="Budget" style="stroke: #383838; stroke-width: 1.5;" width="97" x="148" y="14.5"/><ellipse cx="174.25" cy="30.5" fill="#ABABAB" rx="11" ry="11" style="stroke: #383838; stroke-width: 1.0;"/><path d="M178.3643,36.5 L170.6445,36.5 L170.6445,24.1069 L178.3643,24.1069 L178.3643,26.2651 L173.0933,26.2651 L173.0933,28.938 L177.8662,28.938 L177.8662,31.0962 L173.0933,31.0962 L173.0933,34.3418 L178.3643,34.3418 Z "/><text fill="#000000" font-family="sans-serif" font-size="12" lengthAdjust="spacingAndGlyphs" textLength="40" x="190.75" y="35.0352">Budget</text><line style="stroke: #383838; stroke-width: 1.5;" x1="149" x2="244" y1="46.5" y2="46.5"/><text fill="#000000" font-family="sans-serif" font-size="11" lengthAdjust="spacingAndGlyphs" textLength="73" x="154" y="61.1348">client_budget</text><text fill="#000000" font-family="sans-serif" font-size="11" lengthAdjust="spacingAndGlyphs" textLength="85" x="154" y="74.0898">internal_budget</text><line style="stroke: #383838; stroke-width: 1.5;" x1="149" x2="244" y1="80.4102" y2="80.4102"/><!--class Destination--><rect fill="#F8F8F8" filter="url(#f1ir6r013ikeg6)" height="73.9102" id="Destination" style="stroke: #383838; stroke-width: 1.5;" width="96" x="280.5" y="14.5"/><ellipse cx="295.5" cy="30.5" fill="#ABABAB" rx="11" ry="11" style="stroke: #383838; stroke-width: 1.0;"/><path d="M299.6143,36.5 L291.8945,36.5 L291.8945,24.1069 L299.6143,24.1069 L299.6143,26.2651 L294.3433,26.2651 L294.3433,28.938 L299.1162,28.938 L299.1162,31.0962 L294.3433,31.0962 L294.3433,34.3418 L299.6143,34.3418 Z "/><text fill="#000000" font-family="sans-serif" font-size="12" lengthAdjust="spacingAndGlyphs" textLength="64" x="309.5" y="35.0352">Destination</text><line style="stroke: #383838; stroke-width: 1.5;" x1="281.5" x2="375.5" y1="46.5" y2="46.5"/><text fill="#000000" font-family="sans-serif" font-size="11" lengthAdjust="spacingAndGlyphs" textLength="14" x="286.5" y="61.1348">US</text><text fill="#000000" font-family="sans-serif" font-size="11" lengthAdjust="spacingAndGlyphs" textLength="38" x="286.5" y="74.0898">Europe</text><line style="stroke: #383838; stroke-width: 1.5;" x1="281.5" x2="375.5" y1="80.4102" y2="80.4102"/><!--class Airline--><rect fill="#F8F8F8" filter="url(#f1ir6r013ikeg6)" height="99.8203" id="Airline" style="stroke: #383838; stroke-width: 1.5;" width="69" x="25" y="155"/><ellipse cx="40.45" cy="171" fill="#ABABAB" rx="11" ry="11" style="stroke: #383838; stroke-width: 1.0;"/><path d="M44.5643,177 L36.8445,177 L36.8445,164.6069 L44.5643,164.6069 L44.5643,166.7651 L39.2933,166.7651 L39.2933,169.438 L44.0662,169.438 L44.0662,171.5962 L39.2933,171.5962 L39.2933,174.8418 L44.5643,174.8418 Z "/><text fill="#000000" font-family="sans-serif" font-size="12" lengthAdjust="spacingAndGlyphs" textLength="36" x="54.55" y="175.5352">Airline</text><line style="stroke: #383838; stroke-width: 1.5;" x1="26" x2="93" y1="187" y2="187"/><text fill="#000000" font-family="sans-serif" font-size="11" lengthAdjust="spacingAndGlyphs" textLength="57" x="31" y="201.6348">AirCondor</text><text fill="#000000" font-family="sans-serif" font-size="11" lengthAdjust="spacingAndGlyphs" textLength="37" x="31" y="214.5898">FlyHop</text><text fill="#000000" font-family="sans-serif" font-size="11" lengthAdjust="spacingAndGlyphs" textLength="32" x="31" y="227.5449">Amair</text><text fill="#000000" font-family="sans-serif" font-size="11" lengthAdjust="spacingAndGlyphs" textLength="48" x="31" y="240.5">Cheapgo</text><line style="stroke: #383838; stroke-width: 1.5;" x1="26" x2="93" y1="246.8203" y2="246.8203"/><!--class SeatClass--><rect fill="#F8F8F8" filter="url(#f1ir6r013ikeg6)" height="86.8652" id="SeatClass" style="stroke: #383838; stroke-width: 1.5;" width="90" x="129.5" y="161.5"/><ellipse cx="146.3" cy="177.5" fill="#ABABAB" rx="11" ry="11" style="stroke: #383838; stroke-width: 1.0;"/><path d="M150.4143,183.5 L142.6945,183.5 L142.6945,171.1069 L150.4143,171.1069 L150.4143,173.2651 L145.1433,173.2651 L145.1433,175.938 L149.9162,175.938 L149.9162,178.0962 L145.1433,178.0962 L145.1433,181.3418 L150.4143,181.3418 Z "/><text fill="#000000" font-family="sans-serif" font-size="12" lengthAdjust="spacingAndGlyphs" textLength="54" x="160.7" y="182.0352">SeatClass</text><line style="stroke: #383838; stroke-width: 1.5;" x1="130.5" x2="218.5" y1="193.5" y2="193.5"/><text fill="#000000" font-family="sans-serif" font-size="11" lengthAdjust="spacingAndGlyphs" textLength="48" x="135.5" y="208.1348">business</text><text fill="#000000" font-family="sans-serif" font-size="11" lengthAdjust="spacingAndGlyphs" textLength="78" x="135.5" y="221.0898">economy_plus</text><text fill="#000000" font-family="sans-serif" font-size="11" lengthAdjust="spacingAndGlyphs" textLength="49" x="135.5" y="234.0449">economy</text><line style="stroke: #383838; stroke-width: 1.5;" x1="130.5" x2="218.5" y1="240.3652" y2="240.3652"/><!--class EmployeeLevel--><rect fill="#F8F8F8" filter="url(#f1ir6r013ikeg6)" height="86.8652" id="EmployeeLevel" style="stroke: #383838; stroke-width: 1.5;" width="117" x="255" y="161.5"/><ellipse cx="270" cy="177.5" fill="#ABABAB" rx="11" ry="11" style="stroke: #383838; stroke-width: 1.0;"/><path d="M274.1143,183.5 L266.3945,183.5 L266.3945,171.1069 L274.1143,171.1069 L274.1143,173.2651 L268.8433,173.2651 L268.8433,175.938 L273.6162,175.938 L273.6162,178.0962 L268.8433,178.0962 L268.8433,181.3418 L274.1143,181.3418 Z "/><text fill="#000000" font-family="sans-serif" font-size="12" lengthAdjust="spacingAndGlyphs" textLength="85" x="284" y="182.0352">EmployeeLevel</text><line style="stroke: #383838; stroke-width: 1.5;" x1="256" x2="371" y1="193.5" y2="193.5"/><text fill="#000000" font-family="sans-serif" font-size="11" lengthAdjust="spacingAndGlyphs" textLength="39" x="261" y="208.1348">regular</text><text fill="#000000" font-family="sans-serif" font-size="11" lengthAdjust="spacingAndGlyphs" textLength="47" x="261" y="221.0898">manager</text><text fill="#000000" font-family="sans-serif" font-size="11" lengthAdjust="spacingAndGlyphs" textLength="51" x="261" y="234.0449">executive</text><line style="stroke: #383838; stroke-width: 1.5;" x1="256" x2="371" y1="240.3652" y2="240.3652"/><!--link TripCategory to Budget--><!--link Budget to Destination--><!--link TripCategory to Airline--><!--link Airline to SeatClass--><!--link SeatClass to EmployeeLevel--><!--
@startuml
skinparam monochrome true

enum TripCategory {
    client_needs
    internal_needs
    recreation
}

enum Budget {
    client_budget
    internal_budget
}

enum Destination {
    US
    Europe
}

enum Airline {
    AirCondor
    FlyHop
    Amair
    Cheapgo
}

enum SeatClass {
    business
    economy_plus
    economy
}

enum EmployeeLevel {
    regular
    manager
    executive
}
@enduml

PlantUML version 1.2017.13(Wed May 10 19:52:33 EEST 2017)
(GPL source distribution)
Java Runtime: Java(TM) SE Runtime Environment
JVM: Java HotSpot(TM) 64-Bit Server VM
Java Version: 1.8.0_121-b13
Operating System: Mac OS X
OS Version: 10.12.2
Default Encoding: UTF-8
Language: en
Country: US
--></g></svg>