<?xml version="1.0" encoding="UTF-8" standalone="no"?><svg xmlns="http://www.w3.org/2000/svg" xmlns:xlink="http://www.w3.org/1999/xlink" contentScriptType="application/ecmascript" contentStyleType="text/css" height="436px" preserveAspectRatio="none" style="width:394px;height:436px;" version="1.1" viewBox="0 0 394 436" width="394px" zoomAndPan="magnify"><defs><filter height="300%" id="fu5biniu1vxqd" width="300%" x="-1" y="-1"><feGaussianBlur result="blurOut" stdDeviation="2.0"/><feColorMatrix in="blurOut" result="blurOut2" type="matrix" values="0 0 0 0 0 0 0 0 0 0 0 0 0 0 0 0 0 0 .4 0"/><feOffset dx="4.0" dy="4.0" in="blurOut2" result="blurOut3"/><feBlend in="SourceGraphic" in2="blurOut3" mode="normal"/></filter></defs><g><!--cluster RDBMS--><path d="M243,326 C243,316 305,316 305,316 C305,316 367,316 367,326 L367,419 C367,429 305,429 305,429 C305,429 243,429 243,419 L243,326 " fill="#FFFFFF" filter="url(#fu5biniu1vxqd)" style="stroke: #000000; stroke-width: 2.0;"/><path d="M243,326 C243,336 305,336 305,336 C305,336 367,336 367,326 " fill="none" style="stroke: #000000; stroke-width: 2.0;"/><text fill="#000000" font-family="sans-serif" font-size="14" font-weight="bold" lengthAdjust="spacingAndGlyphs" textLength="51" x="279.5" y="350.5352">RDBMS</text><!--entity db--><rect fill="#F8F8F8" filter="url(#fu5biniu1vxqd)" height="62.9766" style="stroke: #383838; stroke-width: 1.5;" width="107" x="251.5" y="358"/><rect fill="#F8F8F8" height="10" style="stroke: #383838; stroke-width: 1.5;" width="15" x="338.5" y="363"/><rect fill="#F8F8F8" height="2" style="stroke: #383838; stroke-width: 1.5;" width="4" x="336.5" y="365"/><rect fill="#F8F8F8" height="2" style="stroke: #383838; stroke-width: 1.5;" width="4" x="336.5" y="369"/><text fill="#000000" font-family="sans-serif" font-size="14" lengthAdjust="spacingAndGlyphs" textLength="67" x="266.5" y="391.5352">corporate</text><text fill="#000000" font-family="sans-serif" font-size="14" lengthAdjust="spacingAndGlyphs" textLength="62" x="266.5" y="408.0234">database</text><!--entity BTManager--><ellipse cx="143" cy="18" fill="#F8F8F8" filter="url(#fu5biniu1vxqd)" rx="8" ry="8" style="stroke: #383838; stroke-width: 2.0;"/><path d="M143,26 L143,53 M130,34 L156,34 M143,53 L130,68 M143,53 L156,68 " fill="#F8F8F8" filter="url(#fu5biniu1vxqd)" style="stroke: #383838; stroke-width: 2.0;"/><text fill="#000000" font-family="sans-serif" font-size="14" lengthAdjust="spacingAndGlyphs" textLength="77" x="104.5" y="88.5352">BTManager</text><!--entity BTRequestor--><ellipse cx="305" cy="18" fill="#F8F8F8" filter="url(#fu5biniu1vxqd)" rx="8" ry="8" style="stroke: #383838; stroke-width: 2.0;"/><path d="M305,26 L305,53 M292,34 L318,34 M305,53 L292,68 M305,53 L318,68 " fill="#F8F8F8" filter="url(#fu5biniu1vxqd)" style="stroke: #383838; stroke-width: 2.0;"/><text fill="#000000" font-family="sans-serif" font-size="14" lengthAdjust="spacingAndGlyphs" textLength="87" x="261.5" y="88.5352">BTRequestor</text><!--entity FlightReservationSite--><rect fill="#F8F8F8" filter="url(#fu5biniu1vxqd)" height="62.9766" style="stroke: #383838; stroke-width: 1.5;" width="184" x="6" y="183"/><rect fill="#F8F8F8" height="10" style="stroke: #383838; stroke-width: 1.5;" width="15" x="170" y="188"/><rect fill="#F8F8F8" height="2" style="stroke: #383838; stroke-width: 1.5;" width="4" x="168" y="190"/><rect fill="#F8F8F8" height="2" style="stroke: #383838; stroke-width: 1.5;" width="4" x="168" y="194"/><text fill="#000000" font-family="sans-serif" font-size="14" font-style="italic" lengthAdjust="spacingAndGlyphs" textLength="71" x="57.5" y="216.5352">«external»</text><text fill="#000000" font-family="sans-serif" font-size="14" lengthAdjust="spacingAndGlyphs" textLength="144" x="21" y="233.0234">FlightReservationSite</text><!--entity BusinessTripDesk--><rect fill="#F8F8F8" filter="url(#fu5biniu1vxqd)" height="62.9766" style="stroke: #383838; stroke-width: 1.5;" width="160" x="225" y="183"/><rect fill="#F8F8F8" height="10" style="stroke: #383838; stroke-width: 1.5;" width="15" x="365" y="188"/><rect fill="#F8F8F8" height="2" style="stroke: #383838; stroke-width: 1.5;" width="4" x="363" y="190"/><rect fill="#F8F8F8" height="2" style="stroke: #383838; stroke-width: 1.5;" width="4" x="363" y="194"/><text fill="#000000" font-family="sans-serif" font-size="14" font-style="italic" lengthAdjust="spacingAndGlyphs" textLength="67" x="266.5" y="216.5352">«internal»</text><text fill="#000000" font-family="sans-serif" font-size="14" lengthAdjust="spacingAndGlyphs" textLength="120" x="240" y="233.0234">BusinessTripDesk</text><!--link BusinessTripDesk to db--><path d="M305,246.1912 C305,276.0795 305,320.8779 305,352.4147 " fill="none" id="BusinessTripDesk-db" style="stroke: #383838; stroke-width: 1.0; stroke-dasharray: 7.0,7.0;"/><polygon fill="#383838" points="305,357.7494,309,348.7494,305,352.7494,301,348.7494,305,357.7494" style="stroke: #383838; stroke-width: 1.0;"/><text fill="#000000" font-family="sans-serif" font-size="13" lengthAdjust="spacingAndGlyphs" textLength="32" x="316.5" y="289.5684">store</text><text fill="#000000" font-family="sans-serif" font-size="13" lengthAdjust="spacingAndGlyphs" textLength="53" x="306" y="304.8789">trip data</text><!--link BTManager to FlightReservationSite--><path d="M110.7457,91.026 C105.0841,100.4062 100.0382,110.6622 97,121 C91.6903,139.0668 91.3978,159.9582 92.6659,177.4049 " fill="none" id="BTManager-FlightReservationSite" style="stroke: #383838; stroke-width: 1.0; stroke-dasharray: 7.0,7.0;"/><polygon fill="#383838" points="93.1057,182.7019,96.347,173.4017,92.6918,177.7191,88.3745,174.0639,93.1057,182.7019" style="stroke: #383838; stroke-width: 1.0;"/><text fill="#000000" font-family="sans-serif" font-size="13" lengthAdjust="spacingAndGlyphs" textLength="34" x="116" y="134.5684">make</text><text fill="#000000" font-family="sans-serif" font-size="13" lengthAdjust="spacingAndGlyphs" textLength="70" x="98" y="149.8789">reservation</text><!--link BTManager to BusinessTripDesk--><path d="M181.803,89.0216 C208.6577,116.3736 244.0978,152.47 270.0703,178.9234 " fill="none" id="BTManager-BusinessTripDesk" style="stroke: #383838; stroke-width: 1.0; stroke-dasharray: 7.0,7.0;"/><polygon fill="#383838" points="273.8315,182.7543,270.3804,173.5299,270.3285,179.1865,264.6719,179.1346,273.8315,182.7543" style="stroke: #383838; stroke-width: 1.0;"/><text fill="#000000" font-family="sans-serif" font-size="13" lengthAdjust="spacingAndGlyphs" textLength="49" x="244" y="134.5684">process</text><text fill="#000000" font-family="sans-serif" font-size="13" lengthAdjust="spacingAndGlyphs" textLength="47" x="245" y="149.8789">request</text><!--link BTRequestor to BusinessTripDesk--><path d="M305,91.1365 C305,117.808 305,152.1027 305,177.7603 " fill="none" id="BTRequestor-BusinessTripDesk" style="stroke: #383838; stroke-width: 1.0; stroke-dasharray: 7.0,7.0;"/><polygon fill="#383838" points="305,182.7718,309,173.7718,305,177.7718,301,173.7718,305,182.7718" style="stroke: #383838; stroke-width: 1.0;"/><text fill="#000000" font-family="sans-serif" font-size="13" lengthAdjust="spacingAndGlyphs" textLength="34" x="312.5" y="134.5684">make</text><text fill="#000000" font-family="sans-serif" font-size="13" lengthAdjust="spacingAndGlyphs" textLength="47" x="306" y="149.8789">request</text><!--
@startuml
skinparam componentStyle uml2
skinparam monochrome true

actor BTManager
actor BTRequestor

component FlightReservationSite <<external>>
component BusinessTripDesk <<internal>>
database RDBMS{
    [corporate\ndatabase] as db
}

[BusinessTripDesk] ..> [db] : store\ntrip data

BTManager ..> FlightReservationSite : make\nreservation
BTManager ..> BusinessTripDesk : process\nrequest
BTRequestor ..> BusinessTripDesk : make\nrequest
@enduml

PlantUML version 1.2017.13(Wed May 10 19:52:33 EEST 2017)
(GPL source distribution)
Java Runtime: Java(TM) SE Runtime Environment
JVM: Java HotSpot(TM) 64-Bit Server VM
Java Version: 1.8.0_121-b13
Operating System: Mac OS X
OS Version: 10.12.2
Default Encoding: UTF-8
Language: en
Country: US
--></g></svg>