<?xml version="1.0" encoding="UTF-8" standalone="no"?><svg xmlns="http://www.w3.org/2000/svg" xmlns:xlink="http://www.w3.org/1999/xlink" contentScriptType="application/ecmascript" contentStyleType="text/css" height="436px" preserveAspectRatio="none" style="width:648px;height:436px;" version="1.1" viewBox="0 0 648 436" width="648px" zoomAndPan="magnify"><defs><filter height="300%" id="f1byqjoubku6ip" width="300%" x="-1" y="-1"><feGaussianBlur result="blurOut" stdDeviation="2.0"/><feColorMatrix in="blurOut" result="blurOut2" type="matrix" values="0 0 0 0 0 0 0 0 0 0 0 0 0 0 0 0 0 0 .4 0"/><feOffset dx="4.0" dy="4.0" in="blurOut2" result="blurOut3"/><feBlend in="SourceGraphic" in2="blurOut3" mode="normal"/></filter></defs><g><!--cluster RDBMS--><path d="M202.5,326 C202.5,316 264.5,316 264.5,316 C264.5,316 326.5,316 326.5,326 L326.5,419 C326.5,429 264.5,429 264.5,429 C264.5,429 202.5,429 202.5,419 L202.5,326 " fill="#FFFFFF" filter="url(#f1byqjoubku6ip)" style="stroke: #000000; stroke-width: 2.0;"/><path d="M202.5,326 C202.5,336 264.5,336 264.5,336 C264.5,336 326.5,336 326.5,326 " fill="none" style="stroke: #000000; stroke-width: 2.0;"/><text fill="#000000" font-family="sans-serif" font-size="14" font-weight="bold" lengthAdjust="spacingAndGlyphs" textLength="51" x="239" y="350.5352">RDBMS</text><!--entity db--><rect fill="#F8F8F8" filter="url(#f1byqjoubku6ip)" height="62.9766" style="stroke: #383838; stroke-width: 1.5;" width="107" x="211" y="358"/><rect fill="#F8F8F8" height="10" style="stroke: #383838; stroke-width: 1.5;" width="15" x="298" y="363"/><rect fill="#F8F8F8" height="2" style="stroke: #383838; stroke-width: 1.5;" width="4" x="296" y="365"/><rect fill="#F8F8F8" height="2" style="stroke: #383838; stroke-width: 1.5;" width="4" x="296" y="369"/><text fill="#000000" font-family="sans-serif" font-size="14" lengthAdjust="spacingAndGlyphs" textLength="67" x="226" y="391.5352">corporate</text><text fill="#000000" font-family="sans-serif" font-size="14" lengthAdjust="spacingAndGlyphs" textLength="62" x="226" y="408.0234">database</text><!--entity BTManager--><ellipse cx="44.5" cy="18" fill="#F8F8F8" filter="url(#f1byqjoubku6ip)" rx="8" ry="8" style="stroke: #383838; stroke-width: 2.0;"/><path d="M44.5,26 L44.5,53 M31.5,34 L57.5,34 M44.5,53 L31.5,68 M44.5,53 L57.5,68 " fill="#F8F8F8" filter="url(#f1byqjoubku6ip)" style="stroke: #383838; stroke-width: 2.0;"/><text fill="#000000" font-family="sans-serif" font-size="14" lengthAdjust="spacingAndGlyphs" textLength="77" x="6" y="88.5352">BTManager</text><!--entity BTRequestor--><ellipse cx="161.5" cy="18" fill="#F8F8F8" filter="url(#f1byqjoubku6ip)" rx="8" ry="8" style="stroke: #383838; stroke-width: 2.0;"/><path d="M161.5,26 L161.5,53 M148.5,34 L174.5,34 M161.5,53 L148.5,68 M161.5,53 L174.5,68 " fill="#F8F8F8" filter="url(#f1byqjoubku6ip)" style="stroke: #383838; stroke-width: 2.0;"/><text fill="#000000" font-family="sans-serif" font-size="14" lengthAdjust="spacingAndGlyphs" textLength="87" x="118" y="88.5352">BTRequestor</text><!--entity FlightReservationSite--><rect fill="#F8F8F8" filter="url(#f1byqjoubku6ip)" height="62.9766" style="stroke: #383838; stroke-width: 1.5;" width="184" x="455.5" y="183"/><rect fill="#F8F8F8" height="10" style="stroke: #383838; stroke-width: 1.5;" width="15" x="619.5" y="188"/><rect fill="#F8F8F8" height="2" style="stroke: #383838; stroke-width: 1.5;" width="4" x="617.5" y="190"/><rect fill="#F8F8F8" height="2" style="stroke: #383838; stroke-width: 1.5;" width="4" x="617.5" y="194"/><text fill="#000000" font-family="sans-serif" font-size="14" font-style="italic" lengthAdjust="spacingAndGlyphs" textLength="71" x="507" y="216.5352">«external»</text><text fill="#000000" font-family="sans-serif" font-size="14" lengthAdjust="spacingAndGlyphs" textLength="144" x="470.5" y="233.0234">FlightReservationSite</text><!--entity BusinessTripDesk--><rect fill="#F8F8F8" filter="url(#f1byqjoubku6ip)" height="62.9766" style="stroke: #383838; stroke-width: 1.5;" width="160" x="79.5" y="183"/><rect fill="#F8F8F8" height="10" style="stroke: #383838; stroke-width: 1.5;" width="15" x="219.5" y="188"/><rect fill="#F8F8F8" height="2" style="stroke: #383838; stroke-width: 1.5;" width="4" x="217.5" y="190"/><rect fill="#F8F8F8" height="2" style="stroke: #383838; stroke-width: 1.5;" width="4" x="217.5" y="194"/><text fill="#000000" font-family="sans-serif" font-size="14" font-style="italic" lengthAdjust="spacingAndGlyphs" textLength="67" x="121" y="216.5352">«internal»</text><text fill="#000000" font-family="sans-serif" font-size="14" lengthAdjust="spacingAndGlyphs" textLength="120" x="94.5" y="233.0234">BusinessTripDesk</text><!--entity BTRobot--><rect fill="#F8F8F8" filter="url(#f1byqjoubku6ip)" height="62.9766" style="stroke: #383838; stroke-width: 1.5;" width="98" x="298.5" y="18"/><rect fill="#F8F8F8" height="10" style="stroke: #383838; stroke-width: 1.5;" width="15" x="376.5" y="23"/><rect fill="#F8F8F8" height="2" style="stroke: #383838; stroke-width: 1.5;" width="4" x="374.5" y="25"/><rect fill="#F8F8F8" height="2" style="stroke: #383838; stroke-width: 1.5;" width="4" x="374.5" y="29"/><text fill="#000000" font-family="sans-serif" font-size="14" font-style="italic" lengthAdjust="spacingAndGlyphs" textLength="41" x="322" y="51.5352">«RPA»</text><text fill="#000000" font-family="sans-serif" font-size="14" lengthAdjust="spacingAndGlyphs" textLength="58" x="313.5" y="68.0234">BTRobot</text><!--entity ReservationDSS--><rect fill="#F8F8F8" filter="url(#f1byqjoubku6ip)" height="62.9766" style="stroke: #383838; stroke-width: 1.5;" width="146" x="274.5" y="183"/><rect fill="#F8F8F8" height="10" style="stroke: #383838; stroke-width: 1.5;" width="15" x="400.5" y="188"/><rect fill="#F8F8F8" height="2" style="stroke: #383838; stroke-width: 1.5;" width="4" x="398.5" y="190"/><rect fill="#F8F8F8" height="2" style="stroke: #383838; stroke-width: 1.5;" width="4" x="398.5" y="194"/><text fill="#000000" font-family="sans-serif" font-size="14" font-style="italic" lengthAdjust="spacingAndGlyphs" textLength="41" x="322" y="216.5352">«RPA»</text><text fill="#000000" font-family="sans-serif" font-size="14" lengthAdjust="spacingAndGlyphs" textLength="106" x="289.5" y="233.0234">ReservationDSS</text><!--link BusinessTripDesk to db--><path d="M178.5147,246.1912 C196.5959,276.3265 223.7717,321.6194 242.7163,353.1938 " fill="none" id="BusinessTripDesk-db" style="stroke: #383838; stroke-width: 1.0; stroke-dasharray: 7.0,7.0;"/><polygon fill="#383838" points="245.4496,357.7494,244.2489,347.974,242.877,353.462,237.3891,352.0901,245.4496,357.7494" style="stroke: #383838; stroke-width: 1.0;"/><text fill="#000000" font-family="sans-serif" font-size="13" lengthAdjust="spacingAndGlyphs" textLength="32" x="227" y="289.5684">store</text><text fill="#000000" font-family="sans-serif" font-size="13" lengthAdjust="spacingAndGlyphs" textLength="53" x="216.5" y="304.8789">trip data</text><!--link ReservationDSS to db--><path d="M332.4693,246.1912 C318.1766,276.3265 296.6948,321.6194 281.7195,353.1938 " fill="none" id="ReservationDSS-db" style="stroke: #383838; stroke-width: 1.0; stroke-dasharray: 7.0,7.0;"/><polygon fill="#383838" points="279.5589,357.7494,287.0299,351.3319,281.7016,353.2318,279.8017,347.9035,279.5589,357.7494" style="stroke: #383838; stroke-width: 1.0;"/><text fill="#000000" font-family="sans-serif" font-size="13" lengthAdjust="spacingAndGlyphs" textLength="65" x="319.5" y="289.5684">learn from</text><text fill="#000000" font-family="sans-serif" font-size="13" lengthAdjust="spacingAndGlyphs" textLength="58" x="323" y="304.8789">past data</text><!--link BTRobot to ReservationDSS--><path d="M347.5,81.3137 C347.5,108.8194 347.5,148.5979 347.5,177.5161 " fill="none" id="BTRobot-ReservationDSS" style="stroke: #383838; stroke-width: 1.0; stroke-dasharray: 7.0,7.0;"/><polygon fill="#383838" points="347.5,182.784,351.5,173.784,347.5,177.784,343.5,173.784,347.5,182.784" style="stroke: #383838; stroke-width: 1.0;"/><text fill="#000000" font-family="sans-serif" font-size="13" lengthAdjust="spacingAndGlyphs" textLength="30" x="357.5" y="134.5684">filter</text><text fill="#000000" font-family="sans-serif" font-size="13" lengthAdjust="spacingAndGlyphs" textLength="48" x="348.5" y="149.8789">options</text><!--link BTRobot to FlightReservationSite--><path d="M386.062,81.3137 C420.0941,109.3901 469.6258,150.2538 504.8355,179.3018 " fill="none" id="BTRobot-FlightReservationSite" style="stroke: #383838; stroke-width: 1.0; stroke-dasharray: 7.0,7.0;"/><polygon fill="#383838" points="509.0564,182.784,504.6595,173.9711,505.1995,179.6021,499.5685,180.1421,509.0564,182.784" style="stroke: #383838; stroke-width: 1.0;"/><text fill="#000000" font-family="sans-serif" font-size="13" lengthAdjust="spacingAndGlyphs" textLength="34" x="489.5" y="134.5684">make</text><text fill="#000000" font-family="sans-serif" font-size="13" lengthAdjust="spacingAndGlyphs" textLength="70" x="471.5" y="149.8789">reservation</text><!--link BTRobot to BusinessTripDesk--><path d="M311.2517,81.3137 C279.2616,109.3901 232.7018,150.2538 199.6046,179.3018 " fill="none" id="BTRobot-BusinessTripDesk" style="stroke: #383838; stroke-width: 1.0; stroke-dasharray: 7.0,7.0;"/><polygon fill="#383838" points="195.637,182.784,205.0399,179.8538,199.395,179.4859,199.7629,173.841,195.637,182.784" style="stroke: #383838; stroke-width: 1.0;"/><text fill="#000000" font-family="sans-serif" font-size="13" lengthAdjust="spacingAndGlyphs" textLength="49" x="266.5" y="134.5684">process</text><text fill="#000000" font-family="sans-serif" font-size="13" lengthAdjust="spacingAndGlyphs" textLength="47" x="267.5" y="149.8789">request</text><!--link BTManager to BusinessTripDesk--><path d="M64.2923,91.0002 C74.3561,110.5165 87.4251,133.6862 101.5,153 C107.9624,161.8679 115.5972,170.8017 123.1684,179.0064 " fill="none" id="BTManager-BusinessTripDesk" style="stroke: #383838; stroke-width: 1.0; stroke-dasharray: 7.0,7.0;"/><polygon fill="#383838" points="126.8746,182.9722,123.6518,173.6656,123.4606,179.3192,117.807,179.128,126.8746,182.9722" style="stroke: #383838; stroke-width: 1.0;"/><text fill="#000000" font-family="sans-serif" font-size="13" lengthAdjust="spacingAndGlyphs" textLength="49" x="102.5" y="134.5684">support</text><text fill="#000000" font-family="sans-serif" font-size="13" lengthAdjust="spacingAndGlyphs" textLength="47" x="103.5" y="149.8789">request</text><!--link BTRequestor to BusinessTripDesk--><path d="M160.9953,91.1365 C160.672,117.808 160.2563,152.1027 159.9453,177.7603 " fill="none" id="BTRequestor-BusinessTripDesk" style="stroke: #383838; stroke-width: 1.0; stroke-dasharray: 7.0,7.0;"/><polygon fill="#383838" points="159.8846,182.7718,163.9936,173.821,159.9453,177.7722,155.9942,173.7239,159.8846,182.7718" style="stroke: #383838; stroke-width: 1.0;"/><text fill="#000000" font-family="sans-serif" font-size="13" lengthAdjust="spacingAndGlyphs" textLength="34" x="169" y="134.5684">make</text><text fill="#000000" font-family="sans-serif" font-size="13" lengthAdjust="spacingAndGlyphs" textLength="47" x="162.5" y="149.8789">request</text><!--
@startuml
skinparam componentStyle uml2
skinparam monochrome true

actor BTManager
actor BTRequestor

component FlightReservationSite <<external>>
component BusinessTripDesk <<internal>>
database RDBMS{
    [corporate\ndatabase] as db
}
component BTRobot <<RPA>>
component ReservationDSS <<RPA>>

[BusinessTripDesk] ..> [db] : store\ntrip data
[ReservationDSS] ..> [db] : learn from\npast data

BTRobot ..> ReservationDSS : filter\noptions
BTRobot ..> FlightReservationSite : make\nreservation
BTRobot ..> BusinessTripDesk : process\nrequest
BTManager ..> BusinessTripDesk : support\nrequest
BTRequestor ..> BusinessTripDesk : make\nrequest
@enduml

PlantUML version 1.2017.13(Wed May 10 19:52:33 EEST 2017)
(GPL source distribution)
Java Runtime: Java(TM) SE Runtime Environment
JVM: Java HotSpot(TM) 64-Bit Server VM
Java Version: 1.8.0_121-b13
Operating System: Mac OS X
OS Version: 10.12.2
Default Encoding: UTF-8
Language: en
Country: US
--></g></svg>