<?xml version="1.0" encoding="UTF-8" standalone="no"?><svg xmlns="http://www.w3.org/2000/svg" xmlns:xlink="http://www.w3.org/1999/xlink" contentScriptType="application/ecmascript" contentStyleType="text/css" height="549px" preserveAspectRatio="none" style="width:480px;height:549px;" version="1.1" viewBox="0 0 480 549" width="480px" zoomAndPan="magnify"><defs><filter height="300%" id="f1or6c2sz3gbd2" width="300%" x="-1" y="-1"><feGaussianBlur result="blurOut" stdDeviation="2.0"/><feColorMatrix in="blurOut" result="blurOut2" type="matrix" values="0 0 0 0 0 0 0 0 0 0 0 0 0 0 0 0 0 0 .4 0"/><feOffset dx="4.0" dy="4.0" in="blurOut2" result="blurOut3"/><feBlend in="SourceGraphic" in2="blurOut3" mode="normal"/></filter></defs><g><!--entity User--><ellipse cx="382.5" cy="18" fill="#F8F8F8" filter="url(#f1or6c2sz3gbd2)" rx="8" ry="8" style="stroke: #383838; stroke-width: 2.0;"/><path d="M382.5,26 L382.5,53 M369.5,34 L395.5,34 M382.5,53 L369.5,68 M382.5,53 L395.5,68 " fill="#F8F8F8" filter="url(#f1or6c2sz3gbd2)" style="stroke: #383838; stroke-width: 2.0;"/><text fill="#000000" font-family="sans-serif" font-size="14" lengthAdjust="spacingAndGlyphs" textLength="31" x="367" y="88.5352">User</text><!--entity Orchestrator--><rect fill="#F8F8F8" filter="url(#f1or6c2sz3gbd2)" height="62.9766" style="stroke: #383838; stroke-width: 1.5;" width="127" x="64" y="183"/><rect fill="#F8F8F8" height="10" style="stroke: #383838; stroke-width: 1.5;" width="15" x="171" y="188"/><rect fill="#F8F8F8" height="2" style="stroke: #383838; stroke-width: 1.5;" width="4" x="169" y="190"/><rect fill="#F8F8F8" height="2" style="stroke: #383838; stroke-width: 1.5;" width="4" x="169" y="194"/><text fill="#000000" font-family="sans-serif" font-size="14" font-style="italic" lengthAdjust="spacingAndGlyphs" textLength="41" x="102" y="216.5352">«RPA»</text><text fill="#000000" font-family="sans-serif" font-size="14" lengthAdjust="spacingAndGlyphs" textLength="87" x="79" y="233.0234">Orchestrator</text><!--entity ServiceN--><rect fill="#F8F8F8" filter="url(#f1or6c2sz3gbd2)" height="62.9766" style="stroke: #383838; stroke-width: 1.5;" width="111" x="6" y="478"/><rect fill="#F8F8F8" height="10" style="stroke: #383838; stroke-width: 1.5;" width="15" x="97" y="483"/><rect fill="#F8F8F8" height="2" style="stroke: #383838; stroke-width: 1.5;" width="4" x="95" y="485"/><rect fill="#F8F8F8" height="2" style="stroke: #383838; stroke-width: 1.5;" width="4" x="95" y="489"/><text fill="#000000" font-family="sans-serif" font-size="14" font-style="italic" lengthAdjust="spacingAndGlyphs" textLength="71" x="21" y="511.5352">«external»</text><text fill="#000000" font-family="sans-serif" font-size="14" lengthAdjust="spacingAndGlyphs" textLength="58" x="27.5" y="528.0234">ServiceN</text><!--entity Service1--><rect fill="#F8F8F8" filter="url(#f1or6c2sz3gbd2)" height="62.9766" style="stroke: #383838; stroke-width: 1.5;" width="107" x="152" y="478"/><rect fill="#F8F8F8" height="10" style="stroke: #383838; stroke-width: 1.5;" width="15" x="239" y="483"/><rect fill="#F8F8F8" height="2" style="stroke: #383838; stroke-width: 1.5;" width="4" x="237" y="485"/><rect fill="#F8F8F8" height="2" style="stroke: #383838; stroke-width: 1.5;" width="4" x="237" y="489"/><text fill="#000000" font-family="sans-serif" font-size="14" font-style="italic" lengthAdjust="spacingAndGlyphs" textLength="67" x="167" y="511.5352">«internal»</text><text fill="#000000" font-family="sans-serif" font-size="14" lengthAdjust="spacingAndGlyphs" textLength="57" x="172" y="528.0234">Service1</text><!--entity Studio--><rect fill="#F8F8F8" filter="url(#f1or6c2sz3gbd2)" height="62.9766" style="stroke: #383838; stroke-width: 1.5;" width="84" x="284.5" y="183"/><rect fill="#F8F8F8" height="10" style="stroke: #383838; stroke-width: 1.5;" width="15" x="348.5" y="188"/><rect fill="#F8F8F8" height="2" style="stroke: #383838; stroke-width: 1.5;" width="4" x="346.5" y="190"/><rect fill="#F8F8F8" height="2" style="stroke: #383838; stroke-width: 1.5;" width="4" x="346.5" y="194"/><text fill="#000000" font-family="sans-serif" font-size="14" font-style="italic" lengthAdjust="spacingAndGlyphs" textLength="41" x="301" y="216.5352">«RPA»</text><text fill="#000000" font-family="sans-serif" font-size="14" lengthAdjust="spacingAndGlyphs" textLength="44" x="299.5" y="233.0234">Studio</text><!--entity Robot--><rect fill="#F8F8F8" filter="url(#f1or6c2sz3gbd2)" height="62.9766" style="stroke: #383838; stroke-width: 1.5;" width="81" x="165" y="338"/><rect fill="#F8F8F8" height="10" style="stroke: #383838; stroke-width: 1.5;" width="15" x="226" y="343"/><rect fill="#F8F8F8" height="2" style="stroke: #383838; stroke-width: 1.5;" width="4" x="224" y="345"/><rect fill="#F8F8F8" height="2" style="stroke: #383838; stroke-width: 1.5;" width="4" x="224" y="349"/><text fill="#000000" font-family="sans-serif" font-size="14" font-style="italic" lengthAdjust="spacingAndGlyphs" textLength="41" x="180" y="371.5352">«RPA»</text><text fill="#000000" font-family="sans-serif" font-size="14" lengthAdjust="spacingAndGlyphs" textLength="41" x="180" y="388.0234">Robot</text><!--entity Recorder--><rect fill="#F8F8F8" filter="url(#f1or6c2sz3gbd2)" height="62.9766" style="stroke: #383838; stroke-width: 1.5;" width="102" x="325.5" y="338"/><rect fill="#F8F8F8" height="10" style="stroke: #383838; stroke-width: 1.5;" width="15" x="407.5" y="343"/><rect fill="#F8F8F8" height="2" style="stroke: #383838; stroke-width: 1.5;" width="4" x="405.5" y="345"/><rect fill="#F8F8F8" height="2" style="stroke: #383838; stroke-width: 1.5;" width="4" x="405.5" y="349"/><text fill="#000000" font-family="sans-serif" font-size="14" font-style="italic" lengthAdjust="spacingAndGlyphs" textLength="41" x="351" y="371.5352">«RPA»</text><text fill="#000000" font-family="sans-serif" font-size="14" lengthAdjust="spacingAndGlyphs" textLength="62" x="340.5" y="388.0234">Recorder</text><!--entity Software--><rect fill="#F8F8F8" filter="url(#f1or6c2sz3gbd2)" height="62.9766" style="stroke: #383838; stroke-width: 1.5;" width="107" x="294" y="478"/><rect fill="#F8F8F8" height="10" style="stroke: #383838; stroke-width: 1.5;" width="15" x="381" y="483"/><rect fill="#F8F8F8" height="2" style="stroke: #383838; stroke-width: 1.5;" width="4" x="379" y="485"/><rect fill="#F8F8F8" height="2" style="stroke: #383838; stroke-width: 1.5;" width="4" x="379" y="489"/><text fill="#000000" font-family="sans-serif" font-size="14" font-style="italic" lengthAdjust="spacingAndGlyphs" textLength="67" x="309" y="511.5352">«internal»</text><text fill="#000000" font-family="sans-serif" font-size="14" lengthAdjust="spacingAndGlyphs" textLength="60" x="312.5" y="528.0234">Software</text><!--link Studio to Robot--><path d="M290.2899,246.1695 C280.7404,255.3338 270.7957,265.6654 262.5,276 C248.2378,293.7676 234.8371,315.3907 224.6171,333.3657 " fill="none" id="Studio-Robot" style="stroke: #383838; stroke-width: 1.0; stroke-dasharray: 7.0,7.0;"/><polygon fill="#383838" points="222.0887,337.8524,229.9919,331.9754,224.5434,333.4964,223.0224,328.0479,222.0887,337.8524" style="stroke: #383838; stroke-width: 1.0;"/><text fill="#000000" font-family="sans-serif" font-size="13" lengthAdjust="spacingAndGlyphs" textLength="60" x="263.5" y="297.0684">configure</text><!--link Studio to Recorder--><path d="M327.7549,246.4168 C329.2565,264.8474 332.5065,288.2224 339.5,308 C342.5493,316.6235 346.8921,325.3582 351.5358,333.4312 " fill="none" id="Studio-Recorder" style="stroke: #383838; stroke-width: 1.0; stroke-dasharray: 7.0,7.0;"/><polygon fill="#383838" points="354.1403,337.8433,353.0098,328.0595,351.5986,333.5375,346.1206,332.1263,354.1403,337.8433" style="stroke: #383838; stroke-width: 1.0;"/><text fill="#000000" font-family="sans-serif" font-size="13" lengthAdjust="spacingAndGlyphs" textLength="71" x="340.5" y="289.5684">record user</text><text fill="#000000" font-family="sans-serif" font-size="13" lengthAdjust="spacingAndGlyphs" textLength="46" x="353" y="304.8789">actions</text><!--link Robot to Software--><path d="M242.2517,401.1131 C252.8463,410.5311 264.2953,421.0085 274.5,431 C288.4784,444.6863 303.2855,460.3684 315.8838,474.0998 " fill="none" id="Robot-Software" style="stroke: #383838; stroke-width: 1.0; stroke-dasharray: 7.0,7.0;"/><polygon fill="#383838" points="319.3761,477.9177,316.253,468.5771,316.0013,474.2284,310.3501,473.9767,319.3761,477.9177" style="stroke: #383838; stroke-width: 1.0;"/><text fill="#000000" font-family="sans-serif" font-size="13" lengthAdjust="spacingAndGlyphs" textLength="59" x="292.5" y="444.5684">automate</text><!--link Robot to Service1--><path d="M205.5,401.2682 C205.5,422.4795 205.5,450.447 205.5,472.6382 " fill="none" id="Robot-Service1" style="stroke: #383838; stroke-width: 1.0; stroke-dasharray: 7.0,7.0;"/><polygon fill="#383838" points="205.5,477.8576,209.5,468.8576,205.5,472.8576,201.5,468.8576,205.5,477.8576" style="stroke: #383838; stroke-width: 1.0;"/><text fill="#000000" font-family="sans-serif" font-size="13" lengthAdjust="spacingAndGlyphs" textLength="59" x="206.5" y="444.5684">automate</text><!--link Robot to ServiceN--><path d="M168.8341,401.2013 C158.2413,410.6212 146.7719,421.0776 136.5,431 C122.2495,444.7656 107.0566,460.4619 94.098,474.1824 " fill="none" id="Robot-ServiceN" style="stroke: #383838; stroke-width: 1.0; stroke-dasharray: 7.0,7.0;"/><polygon fill="#383838" points="90.5049,477.9967,99.5877,474.1884,93.9334,474.3572,93.7646,468.7029,90.5049,477.9967" style="stroke: #383838; stroke-width: 1.0;"/><text fill="#000000" font-family="sans-serif" font-size="13" lengthAdjust="spacingAndGlyphs" textLength="59" x="137.5" y="444.5684">automate</text><!--link Recorder to User--><path d="M402.0783,337.731 C407.9776,328.6462 413.4215,318.3793 416.5,308 C440.1328,228.3197 434.7945,202.0726 416.5,121 C413.2664,106.6701 406.8069,91.8434 400.3785,79.4323 " fill="none" id="Recorder-User" style="stroke: #383838; stroke-width: 1.0; stroke-dasharray: 7.0,7.0;"/><polygon fill="#383838" points="398.0176,74.9744,398.695,84.7999,400.3577,79.393,405.7647,81.0557,398.0176,74.9744" style="stroke: #383838; stroke-width: 1.0;"/><text fill="#000000" font-family="sans-serif" font-size="13" lengthAdjust="spacingAndGlyphs" textLength="37" x="438" y="212.0684">watch</text><text fill="#000000" font-family="sans-serif" font-size="13" lengthAdjust="spacingAndGlyphs" textLength="46" x="433.5" y="227.3789">actions</text><!--link Orchestrator to Robot--><path d="M119.2136,246.4101 C116.0339,265.2723 115.1136,289.0879 124.5,308 C132.3251,323.7663 146.3384,336.5793 160.534,346.3483 " fill="none" id="Orchestrator-Robot" style="stroke: #383838; stroke-width: 1.0; stroke-dasharray: 7.0,7.0;"/><polygon fill="#383838" points="164.9387,349.2822,159.6657,340.9638,160.7773,346.5104,155.2308,347.622,164.9387,349.2822" style="stroke: #383838; stroke-width: 1.0;"/><text fill="#000000" font-family="sans-serif" font-size="13" lengthAdjust="spacingAndGlyphs" textLength="71" x="125.5" y="297.0684">orchestrate</text><!--link User to Studio--><path d="M366.9853,81.0649 C361.3196,93.3435 355.1639,107.6474 350.5,121 C344.0896,139.353 338.5609,160.2712 334.431,177.6616 " fill="none" id="User-Studio" style="stroke: #383838; stroke-width: 1.0; stroke-dasharray: 7.0,7.0;"/><polygon fill="#383838" points="333.1948,182.9387,339.1421,175.0883,334.3352,178.0705,331.353,173.2636,333.1948,182.9387" style="stroke: #383838; stroke-width: 1.0;"/><text fill="#000000" font-family="sans-serif" font-size="13" lengthAdjust="spacingAndGlyphs" textLength="60" x="351.5" y="134.5684">configure</text><text fill="#000000" font-family="sans-serif" font-size="13" lengthAdjust="spacingAndGlyphs" textLength="41" x="361" y="149.8789">robots</text><!--
@startuml
skinparam componentStyle uml2
skinparam monochrome true

actor User

component Orchestrator <<RPA>>
component ServiceN <<external>>
component Service1 <<internal>>
component Studio <<RPA>>
component Robot <<RPA>>
component Recorder <<RPA>>
component Software <<internal>>

Studio ..> Robot : configure
Studio ..> Recorder : record user\nactions
Robot ..> Software : automate
Robot ..> Service1 : automate
Robot ..> ServiceN : automate
Recorder ..> User : watch\nactions
Orchestrator ..> Robot : orchestrate
User ..> Studio : configure\nrobots
@enduml

PlantUML version 1.2017.13(Wed May 10 19:52:33 EEST 2017)
(GPL source distribution)
Java Runtime: Java(TM) SE Runtime Environment
JVM: Java HotSpot(TM) 64-Bit Server VM
Java Version: 1.8.0_121-b13
Operating System: Mac OS X
OS Version: 10.12.2
Default Encoding: UTF-8
Language: en
Country: US
--></g></svg>